# xmcd
#
# Track frame offsets: 
#        183
#        12788
#        24515
#        36755
#        49540
#        62105
#        73278
#        88170
#        100155
#        115080
#
# Disc length: 1706 seconds
#
# Revision: 3
# Processed by: cddbd v1.5.2PL0 Copyright (c) Steve Scherf et al.
# Submitted via: ExactAudioCopy v0.99pb4
#
DISCID=7e06a80a
DTITLE=Reba McEntire - The Best Of Reba McEntire
DYEAR=1985
DGENRE=Country
TTITLE0=(You Lift Me) Up To Heaven
TTITLE1=There Ain't No Future In This
TTITLE2=I Don't Think Love Ought To Be That Way
TTITLE3=Only You (And You Alone)
TTITLE4=I'm Not That Lonely Yet
TTITLE5=Can't Even Get The Blues
TTITLE6=Today All Over Again
TTITLE7=Why Do We Want (What We Know We Can't Have)
TTITLE8=My Turn
TTITLE9=You're The First Time I've Thought About Leaving
EXTD=
EXTT0=
EXTT1=
EXTT2=
EXTT3=
EXTT4=
EXTT5=
EXTT6=
EXTT7=
EXTT8=
EXTT9=
PLAYORDER=
